<svg id="Layer_2" data-name="Layer 2" xmlns="http://www.w3.org/2000/svg" viewBox="0 0 136.57 35.32"><defs><style>.cls-1{fill:#fff;}</style></defs><title>logo</title><path class="cls-1" d="M26.79,34.94q-0.56-1.76-1.22-3.61l-1.29-3.69H11.09L9.81,31.32q-0.65,1.84-1.2,3.6H0.72q1.91-5.46,3.61-10.09t3.36-8.71Q9.33,12,10.91,8.35t3.3-7.19h7.18q1.67,3.51,3.28,7.19t3.25,7.77q1.64,4.09,3.36,8.73t3.62,10.09H26.79ZM17.65,8.81q-0.26.74-.75,2t-1.12,2.93l-1.4,3.69q-0.77,2-1.57,4.16h9.66q-0.77-2.19-1.5-4.2T19.6,13.7l-1.15-2.92Q18,9.53,17.65,8.81Z" transform="translate(-0.72 -0.33)"/><path class="cls-1" d="M49.17,0.73q7.6,0,11.65,2.77t4,8.41a9.5,9.5,0,0,1-1.63,5.78,10.75,10.75,0,0,1-4.7,3.48q1,1.27,2.15,2.9t2.19,3.39Q64,29.24,65,31.15t1.9,3.78H58.4l-1.84-3.36q-0.92-1.71-2-3.32t-2-3q-1-1.43-2-2.59H46.87V34.94h-7.6V1.65A43.38,43.38,0,0,1,44.44,1Q47.06,0.73,49.17.73Zm0.44,6.45q-0.83,0-1.48,0l-1.24.1v9.16H49q4.29,0,6.14-1.07A3.87,3.87,0,0,0,57,11.74a3.69,3.69,0,0,0-1.84-3.53,11.61,11.61,0,0,0-5.59-.95V7.18Z" transform="translate(-0.72 -0.33)"/><path class="cls-1" d="M87.37,7Q82.06,7,79.69,10T77.33,18a16.25,16.25,0,0,0,.58,4.51A9.94,9.94,0,0,0,79.66,26a7.9,7.9,0,0,0,2.93,2.27,9.73,9.73,0,0,0,4.09.8q1.27,0,2.17,0a10.2,10.2,0,0,0,1.59-.19V17.1H98V33.82A28.68,28.68,0,0,1,93.66,35a38.54,38.54,0,0,1-7.46.61,19.36,19.36,0,0,1-6.89-1.17A14.41,14.41,0,0,1,74,31a15.23,15.23,0,0,1-3.38-5.53A21.6,21.6,0,0,1,69.43,18a20,20,0,0,1,1.32-7.5A16.18,16.18,0,0,1,74.36,5a15.19,15.19,0,0,1,5.38-3.44A18.52,18.52,0,0,1,86.35.38a26.73,26.73,0,0,1,4.31.35A27.38,27.38,0,0,1,94,1.46a15.41,15.41,0,0,1,2.29.86A12.93,12.93,0,0,1,97.56,3L95.37,9a19.89,19.89,0,0,0-3.58-1.44A15.25,15.25,0,0,0,87.37,7Z" transform="translate(-0.72 -0.33)"/><path class="cls-1" d="M137.28,18A20.79,20.79,0,0,1,136,25.66a15.67,15.67,0,0,1-3.53,5.53,14.51,14.51,0,0,1-5.34,3.34,19.36,19.36,0,0,1-6.65,1.12,18.9,18.9,0,0,1-6.53-1.12,15,15,0,0,1-5.36-3.38,15.61,15.61,0,0,1-3.6-5.53A20.45,20.45,0,0,1,103.66,18,19.79,19.79,0,0,1,105,10.35a16.25,16.25,0,0,1,3.69-5.53,15.13,15.13,0,0,1,5.36-3.36A18.43,18.43,0,0,1,120.52.33a18.91,18.91,0,0,1,6.53,1.12,14.87,14.87,0,0,1,5.36,3.36,15.87,15.87,0,0,1,3.6,5.53A20.45,20.45,0,0,1,137.28,18Zm-25.81,0a15.33,15.33,0,0,0,.61,4.49A10.23,10.23,0,0,0,113.83,26a7.75,7.75,0,0,0,2.77,2.22,9.6,9.6,0,0,0,7.58,0A7.71,7.71,0,0,0,127,26a10.25,10.25,0,0,0,1.75-3.44,15.37,15.37,0,0,0,.61-4.49,15.6,15.6,0,0,0-.61-4.51A10.24,10.24,0,0,0,127,10.07a7.71,7.71,0,0,0-2.83-2.22,8.88,8.88,0,0,0-3.78-.78,8.6,8.6,0,0,0-3.8.8,8,8,0,0,0-2.77,2.24,10.22,10.22,0,0,0-1.75,3.46A15.39,15.39,0,0,0,111.5,18h0Z" transform="translate(-0.72 -0.33)"/></svg>