<?xml version="1.0" encoding="utf-8"?>
<!-- Generator: Adobe Illustrator 19.1.0, SVG Export Plug-In . SVG Version: 6.00 Build 0)  -->
<svg version="1.1" id="Layer_1" xmlns="http://www.w3.org/2000/svg" xmlns:xlink="http://www.w3.org/1999/xlink" x="0px" y="0px"
	 viewBox="0 0 761.2 218.4" style="enable-background:new 0 0 761.2 218.4;" xml:space="preserve">
<style type="text/css">
	.st0{fill:#FFFFFF;}
	.st1{fill:none;stroke:#FAB411;stroke-width:2;stroke-miterlimit:10;}
	.st2{fill:#FAB411;}
	.st3{font-family:'AlfaSlabOne-Regular';}
	.st4{font-size:102.1015px;}
	.st5{letter-spacing:6;}
</style>
<path class="st0" d="M222.6,8.3v120.2c0,45.8-37.4,83.2-83.2,83.2h0c-45.8,0-83.2-37.4-83.2-83.2V8.3 M167.3,85.1h3.9l-4.1,26.5h-1
	L157,68.1h-29.9l-9.9,43.5h-1l-4.1-26.5h3.9v-17H77.7v17h4.2l16.5,63.8h31.1l10-44.9h1l9.4,44.9h31.1l15.5-63.8h4.2v-17h-33.2V85.1z
	"/>
<g>
	<path class="st1" d="M223.1,23.7c0,0,74.3,67.2,5.4,141.8c-5.3,5.7-10.1,11.4-14.7,15.4c-13,11.2-22.9,15.4-30.4,15.2"/>
	<path class="st2" d="M224.8,23.7c0,0-1.3-14.5-17.3-15.5C200.6,7.7,219.3,33.4,224.8,23.7z"/>
	<path class="st2" d="M241.6,47.6c0,0,13.8-19.8-2.4-34C234.4,9.4,241.6,47.6,241.6,47.6z"/>
	<path class="st2" d="M255,81.2c4.7-4.2,13.1-18.4,2.3-28.1C251.1,47.6,255,81.2,255,81.2z"/>
	<path class="st2" d="M248.5,63.1c0,0-12.3,3.8-23.7-15.5C220.3,39.8,256.3,59.1,248.5,63.1z"/>
	<path class="st2" d="M255.1,121c0,0,17.3-3.7,17.5-21.5C272.6,95.9,255.3,110.7,255.1,121z"/>
	<path class="st2" d="M258.6,102.5c0,0-1.1-20.8-14-26.8C241.3,74.2,246.9,99,258.6,102.5z"/>
	<path class="st2" d="M249,138.1c0,0,9.2-22.3-3.1-29.5C242.8,106.8,237.8,133.4,249,138.1z"/>
	<path class="st2" d="M238,155.9c0,0,15.6,5,21.8-14c2.2-6.9-15.8,5.2-15.8,5.2S237.5,153.4,238,155.9z"/>
	<path class="st2" d="M211.3,183.7c0,0,3.2,3.3,12.4,1.5c9.3-1.8,16.6-10,7.8-9.2C222.7,176.8,213.6,177.1,211.3,183.7z"/>
	<path class="st2" d="M204.2,186.4c2.8-4.3,5.1-8.4,3.2-13.6s-10.1,14.5-10.5,16.1C196.4,190.6,197,197.4,204.2,186.4z"/>
	<path class="st2" d="M221.3,171.6c0,0,5.1-34.6,9.8-20.3C235,163.4,221.3,171.6,221.3,171.6z"/>
</g>
<g>
	<path class="st1" d="M56.2,23.7c0,0-74.3,67.2-5.4,141.8c5.3,5.7,10.1,11.4,14.7,15.4c13,11.2,22.9,15.4,30.4,15.2"/>
	<path class="st2" d="M54.4,23.7c0,0,1.3-14.5,17.3-15.5C78.6,7.7,59.9,33.4,54.4,23.7z"/>
	<path class="st2" d="M37.6,47.6c0,0-13.8-19.8,2.4-34C44.8,9.4,37.6,47.6,37.6,47.6z"/>
	<path class="st2" d="M24.2,81.2c-4.7-4.2-13.1-18.4-2.3-28.1C28.1,47.6,24.2,81.2,24.2,81.2z"/>
	<path class="st2" d="M30.7,63.1c0,0,12.3,3.8,23.7-15.5C58.9,39.8,22.9,59.1,30.7,63.1z"/>
	<path class="st2" d="M24.1,121c0,0-17.3-3.7-17.5-21.5C6.6,95.9,23.9,110.7,24.1,121z"/>
	<path class="st2" d="M20.7,102.5c0,0,1.1-20.8,14-26.8C37.9,74.2,32.3,99,20.7,102.5z"/>
	<path class="st2" d="M30.2,138.1c0,0-9.2-22.3,3.1-29.5C36.4,106.8,41.4,133.4,30.2,138.1z"/>
	<path class="st2" d="M41.2,155.9c0,0-15.6,5-21.8-14c-2.2-6.9,15.8,5.2,15.8,5.2S41.7,153.4,41.2,155.9z"/>
	<path class="st2" d="M67.9,183.7c0,0-3.2,3.3-12.4,1.5c-9.3-1.8-16.6-10-7.8-9.2S65.6,177.1,67.9,183.7z"/>
	<path class="st2" d="M75,186.4c-2.8-4.3-5.1-8.4-3.2-13.6s10.1,14.5,10.5,16.1C82.8,190.6,82.2,197.4,75,186.4z"/>
	<path class="st2" d="M57.9,171.6c0,0-5.1-34.6-9.8-20.3C44.2,163.4,57.9,171.6,57.9,171.6z"/>
</g>
<text transform="matrix(1 0 0 1 299.791 98.9569)"><tspan x="0" y="0" class="st0 st3 st4 st5">WEBER</tspan><tspan x="0.3" y="97.9" class="st0 st3 st4">SCHOOL</tspan></text>
</svg>
